<?xml version="1.0" encoding="UTF-8"?>
<svg id="Calque_2" data-name="Calque 2" xmlns="http://www.w3.org/2000/svg" viewBox="0 0 98.77 224.7">
  <g id="Anto_Rosace" data-name="Anto Rosace">
    <g>
      <path d="m60.24,92.22c11.44.13,24.23,7.72,27.06,19.3,1.09,3.78,1.32,7.88.41,11.74-.91,3.83-2.82,7.22-4.14,10.85-2.03,5.23-2.36,11.27.37,16.28,2.85,4.96,6.41,9.6,9.12,14.7,3.73,6.82,6.05,14.56,5.67,22.39-.63,7.75-2.53,15.61-7.46,21.8-7.3,9.38-19.32,13.38-30.74,14.68-7.66,1.07-15.46.91-23.11-.17C15.99,221.29.7,209.58.03,186.88c-.56-11.85,5.74-22.45,12.18-31.89,5.2-6.82,6.03-13.64,2.88-21.61-2.08-5.3-4.9-10.74-4.25-16.63.63-7.7,4.62-15.21,11.44-19.09,5-2.79,10.66-4.88,16.46-4.67-3.86-.15-7.68.79-11.24,2.23-7.27,2.58-13.44,8.31-15.43,15.9-4.63,14.27,6.27,20.52,5.01,33.54-.32,3.94-2.44,7.34-4.6,10.51-4.21,6.4-8.5,12.9-10.55,20.36-2.27,7.37-1.67,15.31.41,22.64,5.99,20.42,27.75,25.52,46.62,25.82,18.6-.1,40.75-5.23,46.73-25.33,5.12-16.79-.15-29.03-9.71-42.77-5.31-7.04-6.78-13.82-3.61-22.21,1.29-3.6,3.18-7.02,4.05-10.71,1.26-5.45.11-11.39-2.53-16.27-2.78-4.96-7.65-8.27-12.74-10.64-3.39-1.53-7.2-2.31-10.88-2.34l-.04-1.5h0Z"/>
      <path d="m36.46,136.11c-.1-11.74,14.27-17.92,22.79-9.74,5.46,5.11,5.47,14.38,0,19.48-8.5,8.2-22.9,1.99-22.79-9.74h0Zm.1,0c0,11.45,14,17.25,22.08,9.13,4.99-4.8,4.99-13.46,0-18.26-8.09-8.11-22.07-2.33-22.08,9.13h0Z"/>
      <path d="m58.46,44.1s3.68-14.55,3.56-13.99c-.11-4.24-.23-13.9-.29-18,0,0-.03-6-.03-6v-.06c-.78-5.09-8.15-5.09-12.19-5.04-4.04-.06-11.41-.04-12.19,5.04,0,0,0,.06,0,.06l-.03,6c-.07,4.05-.2,13.82-.29,18-.15-.63,3.6,14.11,3.57,13.99,0,0-.1.03-.1.03,0,0-4.02-14-4.02-14.01,0,0-.02-24-.02-24,.03-2.82,2.77-4.61,5.23-5.33C44.19.05,46.91-.04,49.5.01c3.87-.03,8.22.02,11.35,2.61,1,.86,1.74,2.15,1.74,3.49l-.02,24s-4.01,14-4.02,14.01c0,0-.1-.03-.1-.03h0Z"/>
      <polygon points="28.51 189.11 70.51 188.61 70.51 189.61 28.51 189.11 28.51 189.11"/>
      <path d="m40.46,126.74c-1.05-23.91-1.01-48.38-.41-72.29,0,0,.41-10.33.41-10.33.24,20.26.24,62.36,0,82.62h0Z"/>
      <path d="m40.51,44.06c4.49-.95,8.98-1.01,13.5-.65,1.33.13,3.21.33,4.5.65,0,0,0,.1,0,.1-4.49.05-13.51.05-18,0,0,0,0-.1,0-.1h0Z"/>
      <path d="m58.56,44.11c1.05,23.73,1.01,48.02.41,71.75,0,0-.41,10.25-.41,10.25-.24-20.11-.24-61.9,0-82h0Z"/>
    </g>
    <path d="m45.69,142.42h-.3s3.58-14.76,3.58-14.76h.3s-3.58,14.76-3.58,14.76Zm5.8-5.11h-4.66s.06-.28.06-.28h4.6s0,.28,0,.28Zm2.02,5.11h-1.02s-3.45-14.76-3.45-14.76h1.02s3.45,14.76,3.45,14.76Z"/>
  </g>
</svg>